<svg width="207" height="43" viewBox="0 0 207 43" fill="none" xmlns="http://www.w3.org/2000/svg">
<path d="M36.6668 15.6666L10.0002 35.6667V27.84M3.3335 15.6666L30.0002 35.6667V27.84M32.7468 10.5616L31.6485 8.82332C31.0418 7.86165 30.7385 7.37998 30.3402 7.33665C29.9435 7.29165 29.4985 7.74832 28.6102 8.66165C25.7402 11.6116 22.8702 11.175 20.0002 16.48C17.1302 11.175 14.2602 11.6116 11.3902 8.66165C10.5018 7.74832 10.0568 7.29165 9.66016 7.33665C9.26183 7.37998 8.9585 7.86165 8.35183 8.82332L7.25516 10.5616C6.83016 11.2316 6.6185 11.5683 6.67683 11.9216C6.7335 12.275 7.0385 12.5166 7.65016 13L17.9535 21.1633C18.9385 21.9433 19.4318 22.3333 20.0002 22.3333C20.5685 22.3333 21.0618 21.9433 22.0468 21.1633L32.3502 13C32.9618 12.5166 33.2668 12.275 33.3235 11.9216C33.3818 11.5683 33.1702 11.2316 32.7468 10.5616Z" stroke="#02978A" stroke-width="3.5" stroke-linecap="round" stroke-linejoin="round"/>
<path d="M68.128 34.108C67.96 34.156 67.672 34.18 67.264 34.18C66.784 34.18 66.232 34.144 65.608 34.072C64.984 34.024 64.432 34 63.952 34C63.16 32.224 62.368 30.508 61.576 28.852C60.808 27.172 60.148 25.564 59.596 24.028L59.236 22.948C59.14 22.684 59.044 22.444 58.948 22.228C58.876 21.988 58.816 21.868 58.768 21.868C58.744 21.868 58.708 22.156 58.66 22.732C58.636 23.308 58.612 24.04 58.588 24.928C58.564 25.816 58.54 26.8 58.516 27.88C58.516 28.96 58.516 30.004 58.516 31.012C58.516 31.564 58.516 32.104 58.516 32.632C58.516 33.136 58.528 33.592 58.552 34C58.288 34.072 58.024 34.12 57.76 34.144C57.496 34.168 57.232 34.18 56.968 34.18C56.392 34.18 55.804 34.144 55.204 34.072C54.628 34 54.064 33.964 53.512 33.964V31.444C53.512 29.164 53.488 26.992 53.44 24.928C53.416 22.864 53.404 20.704 53.404 18.448C53.404 16.792 53.428 15.16 53.476 13.552C53.524 11.92 53.608 10.336 53.728 8.8C53.968 8.752 54.22 8.716 54.484 8.692C54.772 8.668 55.06 8.656 55.348 8.656C55.492 8.656 55.732 8.668 56.068 8.692C56.404 8.692 56.74 8.716 57.076 8.764C57.412 8.788 57.7 8.824 57.94 8.872C58.204 8.92 58.336 8.968 58.336 9.016C58.504 9.448 58.66 9.808 58.804 10.096C58.948 10.384 59.08 10.66 59.2 10.924C59.344 11.188 59.488 11.488 59.632 11.824C59.8 12.136 59.992 12.544 60.208 13.048C60.256 13.168 60.364 13.396 60.532 13.732C60.7 14.068 60.892 14.464 61.108 14.92C61.324 15.352 61.552 15.82 61.792 16.324C62.032 16.804 62.248 17.248 62.44 17.656C62.656 18.04 62.836 18.376 62.98 18.664C63.124 18.928 63.208 19.06 63.232 19.06C63.304 19.012 63.364 18.772 63.412 18.34C63.46 17.908 63.484 17.488 63.484 17.08C63.484 16.12 63.46 15.232 63.412 14.416C63.388 13.576 63.376 12.724 63.376 11.86C63.376 11.356 63.376 10.852 63.376 10.348C63.4 9.82 63.424 9.256 63.448 8.656C64.264 8.512 65.128 8.44 66.04 8.44C66.928 8.44 67.72 8.512 68.416 8.656V20.248C68.44 21.256 68.452 22.276 68.452 23.308C68.452 24.34 68.452 25.372 68.452 26.404C68.452 27.1 68.44 27.772 68.416 28.42C68.416 29.068 68.416 29.728 68.416 30.4C68.416 30.88 68.416 31.36 68.416 31.84C68.44 32.32 68.452 32.8 68.452 33.28V34C68.404 34.024 68.296 34.06 68.128 34.108ZM74.7897 24.784C74.7897 25 74.7897 25.228 74.7897 25.468V25.792C74.7897 27.016 75.1497 28.06 75.8697 28.924C76.3017 29.452 76.8777 29.776 77.5977 29.896C78.3177 29.992 78.9897 29.944 79.6137 29.752C79.8297 29.68 79.9977 29.572 80.1177 29.428C80.2377 29.26 80.3337 29.08 80.4057 28.888C80.4777 28.672 80.5257 28.456 80.5497 28.24C80.5977 28 80.6337 27.772 80.6577 27.556C80.6577 26.596 80.6337 25.624 80.5857 24.64C80.5617 23.632 80.4297 22.672 80.1897 21.76C80.0457 21.4 79.8057 21.124 79.4697 20.932C79.1577 20.716 78.8097 20.584 78.4257 20.536C78.0417 20.488 77.6577 20.524 77.2737 20.644C76.9137 20.74 76.5897 20.908 76.3017 21.148C75.9417 21.556 75.6297 22.012 75.3657 22.516C75.1257 22.996 74.9577 23.512 74.8617 24.064C74.8137 24.304 74.7897 24.544 74.7897 24.784ZM81.9537 41.056C81.6177 41.128 81.3057 41.176 81.0177 41.2C80.7777 41.248 80.3457 41.26 79.7217 41.236C79.0977 41.212 78.2937 41.2 77.3097 41.2C76.1817 41.2 75.1737 40.96 74.2857 40.48C73.3977 40 72.6777 39.352 72.1257 38.536C72.0297 38.368 71.9337 38.14 71.8377 37.852C71.7657 37.588 71.6937 37.312 71.6217 37.024C71.5737 36.736 71.5377 36.46 71.5137 36.196C71.5137 35.932 71.5257 35.704 71.5497 35.512C71.7897 35.416 72.1137 35.344 72.5217 35.296C72.9297 35.272 73.3497 35.26 73.7817 35.26C74.2377 35.284 74.6697 35.308 75.0777 35.332C75.5097 35.38 75.8697 35.428 76.1577 35.476C76.1577 36.1 76.3497 36.592 76.7337 36.952C77.1417 37.336 77.5857 37.552 78.0657 37.6C78.5697 37.648 79.0497 37.528 79.5057 37.24C79.9857 36.952 80.2977 36.472 80.4417 35.8C80.4657 35.56 80.4897 35.308 80.5137 35.044C80.5377 34.804 80.5377 34.588 80.5137 34.396C80.4657 33.988 80.4657 33.568 80.5137 33.136C80.2737 33.4 79.9857 33.592 79.6497 33.712C79.3377 33.832 78.9897 33.916 78.6057 33.964C78.2457 34.012 77.8737 34.036 77.4897 34.036C77.1057 34.036 76.7457 34.048 76.4097 34.072C75.9537 34.072 75.4857 34.036 75.0057 33.964C74.5497 33.892 74.1057 33.772 73.6737 33.604C73.2657 33.436 72.8937 33.208 72.5577 32.92C72.2217 32.632 71.9457 32.26 71.7297 31.804C71.3937 31.156 71.1537 30.484 71.0097 29.788C70.8657 29.068 70.7697 28.336 70.7217 27.592C70.7217 26.464 70.7457 25.252 70.7937 23.956C70.8417 22.66 71.0457 21.448 71.4057 20.32C71.7897 19.168 72.3897 18.208 73.2057 17.44C74.0217 16.648 75.1977 16.204 76.7337 16.108C77.5017 16.06 78.2097 16.168 78.8577 16.432C79.5297 16.672 80.0097 17.128 80.2977 17.8C80.3937 17.848 80.4417 17.812 80.4417 17.692C80.4657 17.548 80.4657 17.38 80.4417 17.188C80.4417 16.972 80.4297 16.768 80.4057 16.576C80.4057 16.36 80.4417 16.192 80.5137 16.072C81.3057 15.976 82.1097 15.952 82.9257 16C83.7417 16.024 84.5577 16.036 85.3737 16.036C85.4697 19.036 85.5177 22.18 85.5177 25.468C85.5417 28.732 85.4817 32.092 85.3377 35.548C85.3137 36.124 85.3137 36.688 85.3377 37.24C85.3617 37.816 85.2537 38.296 85.0137 38.68C84.6777 39.208 84.3297 39.628 83.9697 39.94C83.6337 40.252 83.2977 40.492 82.9617 40.66C82.6257 40.852 82.2897 40.984 81.9537 41.056ZM100.486 15.964C101.086 15.988 101.77 16.024 102.538 16.072C102.562 16.216 102.574 16.36 102.574 16.504C102.598 16.648 102.61 16.792 102.61 16.936V17.296C102.538 19.888 102.55 22.444 102.646 24.964C102.742 27.46 102.706 29.992 102.538 32.56C102.538 32.872 102.526 33.184 102.502 33.496C102.502 33.808 102.358 33.988 102.07 34.036H101.638C101.254 34.036 100.858 34.024 100.45 34C100.066 33.952 99.6824 33.928 99.2984 33.928C99.0344 33.928 98.7704 33.952 98.5064 34C98.2664 34.024 98.0144 34.036 97.7504 34.036C97.5824 33.988 97.4624 33.892 97.3904 33.748C97.3424 33.604 97.3184 33.436 97.3184 33.244C97.3184 32.98 97.3424 32.764 97.3904 32.596C97.4384 32.428 97.4624 32.224 97.4624 31.984C96.8864 32.56 96.1544 33.052 95.2664 33.46C94.4024 33.868 93.5504 34.072 92.7104 34.072C91.7744 34.072 90.9704 33.748 90.2984 33.1C89.6504 32.452 89.1104 31.648 88.6784 30.688C88.2464 29.728 87.9224 28.684 87.7064 27.556C87.5144 26.428 87.4184 25.384 87.4184 24.424C87.4184 23.224 87.5744 22.12 87.8864 21.112C88.1984 20.104 88.6184 19.24 89.1464 18.52C89.6984 17.776 90.3464 17.2 91.0904 16.792C91.8344 16.36 92.6264 16.132 93.4664 16.108C93.8984 16.108 94.2944 16.12 94.6544 16.144C95.0384 16.144 95.3864 16.204 95.6984 16.324C96.0104 16.42 96.2864 16.588 96.5264 16.828C96.7664 17.044 96.9704 17.356 97.1384 17.764C97.1144 17.38 97.1264 17.056 97.1744 16.792C97.2464 16.504 97.2824 16.216 97.2824 15.928C97.2824 15.904 97.3544 15.892 97.4984 15.892C97.6664 15.868 97.8464 15.868 98.0384 15.892C98.2304 15.892 98.4224 15.892 98.6144 15.892C98.8064 15.892 98.9384 15.892 99.0104 15.892C99.4184 15.916 99.9104 15.94 100.486 15.964ZM93.0704 21.652C92.5184 22.108 92.1824 22.636 92.0624 23.236C91.9664 23.548 91.9064 23.872 91.8824 24.208C91.8584 24.52 91.8464 24.832 91.8464 25.144C91.8464 26.224 92.1224 27.148 92.6744 27.916C93.2504 28.66 94.0424 29.032 95.0504 29.032C95.6504 29.032 96.0944 28.936 96.3824 28.744C96.6944 28.528 96.9104 28.24 97.0304 27.88C97.1744 27.496 97.2464 27.04 97.2464 26.512C97.2704 25.96 97.2824 25.348 97.2824 24.676C97.2824 23.836 97.2704 23.176 97.2464 22.696C97.2464 22.192 97.1864 21.808 97.0664 21.544C96.9704 21.28 96.7904 21.112 96.5264 21.04C96.2864 20.968 95.9144 20.932 95.4104 20.932C94.4264 20.932 93.6464 21.172 93.0704 21.652ZM105.115 24.064C105.139 22.912 105.175 21.868 105.223 20.932V16.108C105.607 16.156 106.003 16.168 106.411 16.144C106.843 16.12 107.263 16.096 107.671 16.072C108.079 16.024 108.463 15.988 108.823 15.964C109.207 15.94 109.555 15.952 109.867 16C109.939 16.576 109.975 17.272 109.975 18.088C109.975 18.88 109.963 19.684 109.939 20.5C109.939 21.292 109.927 22.06 109.903 22.804C109.879 23.524 109.891 24.1 109.939 24.532C109.939 25.708 109.939 26.836 109.939 27.916C109.963 28.972 109.963 30.028 109.939 31.084C109.939 32.116 109.891 33.16 109.795 34.216C109.723 35.296 109.591 36.412 109.399 37.564C109.087 38.308 108.571 38.896 107.851 39.328C107.155 39.76 106.351 40.084 105.439 40.3C104.527 40.516 103.555 40.648 102.523 40.696C101.491 40.768 100.495 40.78 99.5355 40.732C99.4155 40.372 99.3435 39.976 99.3195 39.544C99.2715 39.112 99.2595 38.68 99.2835 38.248C99.3075 37.816 99.3435 37.396 99.3915 36.988C99.4395 36.58 99.4875 36.208 99.5355 35.872C99.9435 35.896 100.423 35.896 100.975 35.872C101.503 35.848 102.031 35.776 102.559 35.656C103.087 35.56 103.579 35.416 104.035 35.224C104.491 35.032 104.839 34.768 105.079 34.432C105.103 33.424 105.115 32.332 105.115 31.156C105.115 29.98 105.115 28.792 105.115 27.592C105.115 26.392 105.115 25.216 105.115 24.064ZM105.043 10.852C104.995 10.084 104.983 9.148 105.007 8.044L109.795 8.152C109.795 8.296 109.795 8.56 109.795 8.944C109.819 9.304 109.831 9.712 109.831 10.168C109.855 10.6 109.867 11.056 109.867 11.536C109.891 11.992 109.903 12.4 109.903 12.76C109.807 12.904 109.591 13 109.255 13.048C108.919 13.096 108.523 13.12 108.067 13.12C107.635 13.096 107.155 13.072 106.627 13.048C106.099 13 105.607 12.988 105.151 13.012C105.151 12.316 105.115 11.596 105.043 10.852ZM114.911 15.892C115.463 15.916 116.123 15.916 116.891 15.892H117.503V16C117.479 18.904 117.419 21.868 117.323 24.892C117.251 27.916 117.299 30.88 117.467 33.784C117.347 33.928 117.047 34 116.567 34C116.087 34.024 115.559 34.024 114.983 34C114.431 34 113.903 33.988 113.399 33.964C112.895 33.94 112.559 33.952 112.391 34C112.511 32.488 112.559 30.952 112.535 29.392C112.535 27.832 112.511 26.284 112.463 24.748C112.415 23.212 112.391 21.7 112.391 20.212C112.391 18.7 112.463 17.236 112.607 15.82V15.784C112.703 15.76 112.859 15.76 113.075 15.784C113.315 15.808 113.495 15.82 113.615 15.82C113.927 15.844 114.359 15.868 114.911 15.892ZM112.499 10.852C112.451 10.084 112.439 9.148 112.463 8.044L117.359 8.152C117.359 8.296 117.359 8.56 117.359 8.944C117.383 9.304 117.395 9.712 117.395 10.168C117.419 10.6 117.431 11.056 117.431 11.536C117.455 11.992 117.467 12.4 117.467 12.76C117.371 12.904 117.143 13 116.783 13.048C116.447 13.096 116.039 13.12 115.559 13.12C115.103 13.096 114.611 13.072 114.083 13.048C113.555 13 113.063 12.988 112.607 13.012C112.607 12.316 112.571 11.596 112.499 10.852Z" fill="#02978A"/>
<path d="M135.288 26.296C135.288 26.896 135.216 27.484 135.072 28.06C135.048 28.348 134.988 28.66 134.892 28.996C134.748 29.572 134.472 30.304 134.064 31.192C134.232 31.384 134.388 31.576 134.532 31.768C134.676 31.936 134.748 32.104 134.748 32.272C134.748 32.608 134.652 32.872 134.46 33.064C134.268 33.256 134.04 33.448 133.776 33.64C133.584 33.76 133.344 33.892 133.056 34.036C132.768 34.204 132.492 34.288 132.228 34.288C132.084 34.288 131.856 34.144 131.544 33.856C131.256 33.568 131.04 33.328 130.896 33.136C130.752 33.304 130.536 33.46 130.248 33.604C129.96 33.748 129.636 33.868 129.276 33.964C128.916 34.06 128.532 34.132 128.124 34.18C127.716 34.228 127.332 34.24 126.972 34.216C126.372 34.168 125.832 34.096 125.352 34C124.896 33.88 124.464 33.736 124.056 33.568C123.672 33.376 123.3 33.16 122.94 32.92C122.604 32.68 122.256 32.392 121.896 32.056C121.296 31.48 120.84 30.856 120.528 30.184C120.24 29.488 120.036 28.756 119.916 27.988C119.796 27.196 119.736 26.38 119.736 25.54C119.736 24.7 119.736 23.836 119.736 22.948C119.736 22.108 119.736 21.22 119.736 20.284C119.736 19.324 119.748 18.364 119.772 17.404C119.82 16.42 119.892 15.448 119.988 14.488C120.108 13.528 120.288 12.616 120.528 11.752C120.696 11.248 120.996 10.792 121.428 10.384C121.86 9.952 122.388 9.58 123.012 9.268C123.66 8.956 124.38 8.716 125.172 8.548C125.964 8.38 126.828 8.296 127.764 8.296C128.604 8.296 129.348 8.332 129.996 8.404C130.644 8.452 131.232 8.608 131.76 8.872C132.288 9.136 132.768 9.544 133.2 10.096C133.632 10.624 134.052 11.368 134.46 12.328C134.868 13.624 135.144 14.992 135.288 16.432C135.432 17.872 135.504 19.312 135.504 20.752C135.504 21.496 135.492 22.132 135.468 22.66C135.468 23.164 135.444 23.776 135.396 24.496C135.348 25.096 135.312 25.696 135.288 26.296ZM128.556 25.936C128.748 25.744 128.976 25.648 129.24 25.648C129.384 25.648 129.516 25.72 129.636 25.864C129.756 25.984 129.864 26.14 129.96 26.332C130.08 26.5 130.188 26.692 130.284 26.908C130.404 27.124 130.536 27.304 130.68 27.448C130.704 27.328 130.728 27.172 130.752 26.98C130.776 26.764 130.8 26.548 130.824 26.332C130.848 26.092 130.872 25.876 130.896 25.684C130.92 25.468 130.944 25.3 130.968 25.18C130.992 24.916 131.004 24.604 131.004 24.244C131.028 23.884 131.04 23.512 131.04 23.128C131.04 22.72 131.028 22.336 131.004 21.976C131.004 21.592 131.004 21.268 131.004 21.004C131.004 20.164 130.98 19.432 130.932 18.808C130.908 18.184 130.848 17.44 130.752 16.576C130.68 15.712 130.428 15.016 129.996 14.488C129.564 13.936 128.784 13.66 127.656 13.66C126.96 13.66 126.408 13.696 126 13.768C125.616 13.816 125.304 13.936 125.064 14.128C124.848 14.32 124.692 14.608 124.596 14.992C124.524 15.352 124.464 15.832 124.416 16.432C124.368 16.936 124.32 17.404 124.272 17.836C124.248 18.244 124.224 18.652 124.2 19.06C124.2 19.444 124.188 19.852 124.164 20.284C124.164 20.692 124.164 21.148 124.164 21.652C124.164 21.988 124.152 22.432 124.128 22.984C124.128 23.536 124.128 24.112 124.128 24.712C124.128 25.312 124.152 25.9 124.2 26.476C124.248 27.028 124.332 27.484 124.452 27.844C124.716 28.564 125.136 29.08 125.712 29.392C126.312 29.704 126.972 29.86 127.692 29.86C127.812 29.86 127.92 29.86 128.016 29.86C128.112 29.86 128.22 29.848 128.34 29.824C128.052 29.536 127.788 29.26 127.548 28.996C127.356 28.756 127.176 28.516 127.008 28.276C126.864 28.012 126.792 27.772 126.792 27.556C126.792 27.22 126.924 26.992 127.188 26.872C127.452 26.752 127.716 26.596 127.98 26.404C128.172 26.284 128.364 26.128 128.556 25.936ZM146.596 32.956C146.62 32.692 146.62 32.392 146.596 32.056C146.476 32.128 146.32 32.212 146.128 32.308C145.96 32.404 145.816 32.5 145.696 32.596C145.192 32.956 144.628 33.244 144.004 33.46C143.38 33.676 142.732 33.796 142.06 33.82C141.412 33.844 140.776 33.772 140.152 33.604C139.528 33.436 138.964 33.136 138.46 32.704C138.22 32.488 138.028 32.044 137.884 31.372C137.764 30.676 137.68 29.848 137.632 28.888C137.608 27.928 137.596 26.884 137.596 25.756C137.62 24.604 137.644 23.452 137.668 22.3C137.692 21.124 137.716 19.996 137.74 18.916C137.764 17.836 137.752 16.888 137.704 16.072C138.544 15.952 139.288 15.904 139.936 15.928C140.608 15.928 141.364 15.928 142.204 15.928C142.252 16.48 142.276 17.104 142.276 17.8C142.276 18.496 142.264 19.216 142.24 19.96C142.24 20.704 142.24 21.448 142.24 22.192C142.264 22.936 142.3 23.632 142.348 24.28C142.372 24.568 142.396 24.892 142.42 25.252C142.444 25.588 142.48 25.924 142.528 26.26C142.6 26.596 142.684 26.896 142.78 27.16C142.9 27.424 143.056 27.628 143.248 27.772C143.272 27.796 143.296 27.808 143.32 27.808C143.344 27.808 143.368 27.82 143.392 27.844C143.584 27.94 143.86 28.024 144.22 28.096C144.604 28.144 144.976 28.12 145.336 28.024C145.696 27.904 146.02 27.688 146.308 27.376C146.596 27.04 146.764 26.548 146.812 25.9C146.86 25.084 146.872 24.268 146.848 23.452C146.824 22.636 146.788 21.832 146.74 21.04C146.716 20.224 146.692 19.42 146.668 18.628C146.668 17.836 146.728 17.044 146.848 16.252V16.108C147.256 15.988 147.604 15.916 147.892 15.892C148.204 15.868 148.516 15.868 148.828 15.892C149.14 15.892 149.488 15.904 149.872 15.928C150.256 15.952 150.736 15.94 151.312 15.892C151.312 18.844 151.336 21.796 151.384 24.748C151.456 27.7 151.444 30.76 151.348 33.928C151.06 33.904 150.82 33.892 150.628 33.892C150.436 33.868 150.256 33.856 150.088 33.856C149.92 33.856 149.74 33.868 149.548 33.892C149.356 33.892 149.116 33.904 148.828 33.928C148.732 33.928 148.564 33.952 148.324 34C148.084 34.024 147.844 34.048 147.604 34.072C147.364 34.096 147.148 34.096 146.956 34.072C146.764 34.072 146.668 34.036 146.668 33.964C146.62 33.556 146.596 33.22 146.596 32.956ZM158.88 16.9C158.904 16.972 158.916 17.092 158.916 17.26C159.012 17.212 159.228 17.116 159.564 16.972C159.924 16.828 160.272 16.696 160.608 16.576C161.064 16.432 161.58 16.324 162.156 16.252C162.732 16.156 163.272 16.096 163.776 16.072C164.28 16.048 164.7 16.048 165.036 16.072C165.396 16.072 165.576 16.084 165.576 16.108C165.576 16.924 165.564 17.644 165.54 18.268C165.54 18.892 165.54 19.456 165.54 19.96C165.54 20.44 165.54 20.884 165.54 21.292C165.54 21.7 165.552 22.084 165.576 22.444L165.252 22.336C165.132 22.288 165 22.252 164.856 22.228C164.736 22.18 164.616 22.132 164.496 22.084C164.208 22.012 163.908 21.952 163.596 21.904C163.308 21.856 163.152 21.832 163.128 21.832C162.48 21.76 161.88 21.724 161.328 21.724C160.8 21.724 160.332 21.808 159.924 21.976C159.54 22.144 159.24 22.408 159.024 22.768C158.808 23.128 158.712 23.644 158.736 24.316C158.76 25.156 158.784 25.948 158.808 26.692C158.832 27.436 158.844 28.192 158.844 28.96C158.844 29.704 158.844 30.472 158.844 31.264C158.868 32.032 158.88 32.86 158.88 33.748V33.892C158.472 34.012 158.1 34.084 157.764 34.108C157.428 34.132 157.08 34.132 156.72 34.108C156.36 34.108 155.964 34.096 155.532 34.072C155.124 34.048 154.632 34.06 154.056 34.108C154.056 31.156 154.02 28.204 153.948 25.252C153.899 22.3 153.924 19.24 154.02 16.072C154.308 16.096 154.548 16.12 154.74 16.144C154.932 16.144 155.112 16.144 155.28 16.144C155.448 16.144 155.628 16.144 155.82 16.144C156.012 16.12 156.252 16.096 156.54 16.072C156.636 16.072 156.804 16.06 157.044 16.036C157.308 16.012 157.572 15.988 157.836 15.964C158.124 15.94 158.364 15.94 158.556 15.964C158.772 15.964 158.88 15.988 158.88 16.036C158.88 16.228 158.88 16.372 158.88 16.468C158.88 16.564 158.88 16.648 158.88 16.72C158.88 16.768 158.88 16.828 158.88 16.9ZM179.693 15.964C180.293 15.988 180.977 16.024 181.745 16.072C181.769 16.216 181.781 16.36 181.781 16.504C181.805 16.648 181.817 16.792 181.817 16.936V17.296C181.745 19.888 181.757 22.444 181.853 24.964C181.949 27.46 181.913 29.992 181.745 32.56C181.745 32.872 181.733 33.184 181.709 33.496C181.709 33.808 181.565 33.988 181.277 34.036H180.845C180.461 34.036 180.065 34.024 179.657 34C179.273 33.952 178.889 33.928 178.505 33.928C178.241 33.928 177.977 33.952 177.713 34C177.473 34.024 177.221 34.036 176.957 34.036C176.789 33.988 176.669 33.892 176.597 33.748C176.549 33.604 176.525 33.436 176.525 33.244C176.525 32.98 176.549 32.764 176.597 32.596C176.645 32.428 176.669 32.224 176.669 31.984C176.093 32.56 175.361 33.052 174.473 33.46C173.609 33.868 172.757 34.072 171.917 34.072C170.981 34.072 170.177 33.748 169.505 33.1C168.857 32.452 168.317 31.648 167.885 30.688C167.453 29.728 167.129 28.684 166.913 27.556C166.721 26.428 166.625 25.384 166.625 24.424C166.625 23.224 166.781 22.12 167.093 21.112C167.405 20.104 167.825 19.24 168.353 18.52C168.905 17.776 169.553 17.2 170.297 16.792C171.041 16.36 171.833 16.132 172.673 16.108C173.105 16.108 173.501 16.12 173.861 16.144C174.245 16.144 174.593 16.204 174.905 16.324C175.217 16.42 175.493 16.588 175.733 16.828C175.973 17.044 176.177 17.356 176.345 17.764C176.321 17.38 176.333 17.056 176.381 16.792C176.453 16.504 176.489 16.216 176.489 15.928C176.489 15.904 176.561 15.892 176.705 15.892C176.873 15.868 177.053 15.868 177.245 15.892C177.437 15.892 177.629 15.892 177.821 15.892C178.013 15.892 178.145 15.892 178.217 15.892C178.625 15.916 179.117 15.94 179.693 15.964ZM172.277 21.652C171.725 22.108 171.389 22.636 171.269 23.236C171.173 23.548 171.113 23.872 171.089 24.208C171.065 24.52 171.053 24.832 171.053 25.144C171.053 26.224 171.329 27.148 171.881 27.916C172.457 28.66 173.249 29.032 174.257 29.032C174.857 29.032 175.301 28.936 175.589 28.744C175.901 28.528 176.117 28.24 176.237 27.88C176.381 27.496 176.453 27.04 176.453 26.512C176.477 25.96 176.489 25.348 176.489 24.676C176.489 23.836 176.477 23.176 176.453 22.696C176.453 22.192 176.393 21.808 176.273 21.544C176.177 21.28 175.997 21.112 175.733 21.04C175.493 20.968 175.121 20.932 174.617 20.932C173.633 20.932 172.853 21.172 172.277 21.652ZM189.111 17.044C189.111 17.308 189.123 17.608 189.147 17.944C189.267 17.872 189.411 17.788 189.579 17.692C189.771 17.596 189.927 17.5 190.047 17.404C190.551 17.044 191.115 16.756 191.739 16.54C192.363 16.324 192.999 16.204 193.646 16.18C194.319 16.156 194.967 16.228 195.591 16.396C196.215 16.564 196.779 16.864 197.283 17.296C197.523 17.512 197.703 17.968 197.823 18.664C197.967 19.336 198.051 20.152 198.075 21.112C198.123 22.072 198.135 23.128 198.111 24.28C198.111 25.408 198.099 26.56 198.075 27.736C198.051 28.888 198.027 30.004 198.003 31.084C197.979 32.164 197.991 33.112 198.039 33.928C197.199 34.048 196.443 34.096 195.771 34.072C195.123 34.072 194.379 34.072 193.539 34.072C193.491 33.52 193.467 32.896 193.467 32.2C193.467 31.504 193.467 30.784 193.467 30.04C193.491 29.296 193.491 28.552 193.467 27.808C193.467 27.064 193.443 26.368 193.395 25.72C193.371 25.432 193.347 25.12 193.323 24.784C193.299 24.424 193.251 24.076 193.179 23.74C193.131 23.404 193.047 23.104 192.927 22.84C192.831 22.576 192.687 22.372 192.495 22.228C192.471 22.204 192.447 22.192 192.423 22.192C192.399 22.192 192.375 22.18 192.351 22.156C192.159 22.06 191.871 21.988 191.487 21.94C191.127 21.868 190.767 21.892 190.407 22.012C190.047 22.108 189.723 22.324 189.435 22.66C189.147 22.972 188.979 23.452 188.931 24.1C188.883 24.94 188.871 25.768 188.895 26.584C188.919 27.376 188.943 28.18 188.967 28.996C189.015 29.788 189.039 30.58 189.039 31.372C189.039 32.164 188.991 32.956 188.895 33.748V33.892C188.487 34.012 188.127 34.084 187.814 34.108C187.527 34.132 187.227 34.132 186.915 34.108C186.603 34.108 186.255 34.096 185.871 34.072C185.487 34.048 185.007 34.06 184.431 34.108C184.431 31.156 184.395 28.204 184.323 25.252C184.274 22.3 184.299 19.24 184.395 16.072C184.683 16.096 184.923 16.12 185.115 16.144C185.307 16.144 185.487 16.144 185.655 16.144C185.823 16.144 186.003 16.144 186.195 16.144C186.387 16.12 186.627 16.096 186.915 16.072C187.011 16.072 187.179 16.06 187.419 16.036C187.659 15.988 187.899 15.952 188.139 15.928C188.379 15.904 188.595 15.904 188.787 15.928C188.979 15.928 189.075 15.964 189.075 16.036C189.123 16.444 189.135 16.78 189.111 17.044ZM204.742 34H204.67L200.602 33.964H200.494C200.446 33.7 200.41 33.364 200.386 32.956C200.386 32.548 200.386 32.14 200.386 31.732C200.41 31.324 200.422 30.94 200.422 30.58C200.446 30.22 200.458 29.956 200.458 29.788C200.698 29.692 201.034 29.62 201.466 29.572C201.922 29.524 202.378 29.5 202.834 29.5C203.29 29.5 203.71 29.524 204.094 29.572C204.502 29.596 204.79 29.644 204.958 29.716C204.958 29.74 204.946 29.944 204.922 30.328C204.898 30.688 204.874 31.108 204.85 31.588C204.826 32.068 204.802 32.536 204.778 32.992C204.754 33.448 204.742 33.76 204.742 33.928V33.964V34Z" fill="#1B1F1F"/>
</svg>
